<svg width="173" height="173" viewBox="0 0 173 173" fill="none" xmlns="http://www.w3.org/2000/svg">
<g clip-path="url(#clip0_203_2935)">
<path fill-rule="evenodd" clip-rule="evenodd" d="M101.034 73.0319C103.876 70.8789 105.829 67.7907 106.413 63.5996C108.218 50.6345 101.334 41.9613 90.9809 36.5479C75.864 28.6438 53.2599 27.8032 40.6386 30.4659C40.0407 30.5913 39.66 31.1787 39.7865 31.774C39.912 32.372 40.4981 32.755 41.0961 32.6296C53.346 30.0444 75.2864 30.8371 89.9581 38.5071C99.4637 43.4781 105.881 51.3873 104.222 63.2953C103.73 66.8398 102.073 69.4403 99.6753 71.2669C98.4576 69.7183 97.212 68.2245 95.9402 66.7892C92.4283 62.8282 81.5361 54.3667 72.0504 51.4237C65.2454 49.3144 59.171 50.0393 56.5081 56.4024C55.0289 59.9395 56.0679 63.4479 58.8359 66.554C62.6388 70.8266 69.8259 74.3499 77.4899 75.9986C83.8705 77.3723 90.568 77.4511 95.8844 75.6782C97.052 75.2862 98.1564 74.8105 99.1782 74.2396C115.66 96.0375 126.106 127.449 124.462 154.136C124.426 154.744 124.887 155.27 125.498 155.306C126.108 155.345 126.632 154.881 126.67 154.274C128.339 127.151 117.761 95.2368 101.034 73.0319ZM97.8037 72.4615C96.656 71.0087 95.4829 69.6057 94.2857 68.256C90.9191 64.4614 80.4846 56.3557 71.396 53.5364C65.8186 51.8054 60.7293 52.041 58.5467 57.256C57.402 59.9955 58.345 62.6775 60.4853 65.085C62.8426 67.7308 66.6117 70.0335 70.9671 71.7404C77.5794 74.332 85.5452 75.5415 92.1015 74.3575C94.1787 73.9834 96.1125 73.3642 97.8037 72.4615Z" fill="#FF1F1F"/>
<path fill-rule="evenodd" clip-rule="evenodd" d="M99.5806 121.262C110.519 128.628 119.652 142.057 124.632 154.342C124.861 154.907 125.506 155.18 126.071 154.951C126.636 154.722 126.911 154.077 126.682 153.512C121.548 140.843 112.092 127.023 100.816 119.429C100.311 119.089 99.6238 119.223 99.2823 119.73C98.942 120.234 99.0761 120.922 99.5806 121.262Z" fill="#FF1F1F"/>
<path fill-rule="evenodd" clip-rule="evenodd" d="M126.953 153.478C125.902 142.549 131.219 128.905 138.112 120.316C138.494 119.84 138.42 119.142 137.942 118.762C137.466 118.38 136.771 118.455 136.389 118.931C129.169 127.929 123.652 142.24 124.753 153.69C124.81 154.297 125.353 154.743 125.96 154.686C126.568 154.626 127.013 154.086 126.953 153.478Z" fill="#FF1F1F"/>
</g>
<defs>
<clipPath id="clip0_203_2935">
<rect width="130" height="130" fill="white" transform="translate(172.1 53.5586) rotate(114.238)"/>
</clipPath>
</defs>
</svg>
