<svg width="143" height="143" viewBox="0 0 143 143" fill="none" xmlns="http://www.w3.org/2000/svg">
<g clip-path="url(#clip0_203_2950)">
<path fill-rule="evenodd" clip-rule="evenodd" d="M61.7234 54.2492C59.7418 51.2856 58.9053 47.7286 59.7236 43.5769C62.2556 30.7339 71.597 24.7876 83.1504 23.0557C100.021 20.5273 121.658 27.1218 132.715 33.764C133.239 34.078 133.407 34.7575 133.093 35.2788C132.779 35.8028 132.1 35.9733 131.576 35.6593C120.844 29.2118 99.8495 22.7889 83.4767 25.2416C72.8683 26.8322 64.2177 32.2092 61.8937 44.0055C61.1995 47.5159 61.9156 50.5152 63.5845 53.0253C65.2416 51.9598 66.907 50.9552 68.5781 50.0146C73.1919 47.4191 86.2517 42.983 96.1783 43.3024C103.299 43.5334 108.803 46.2042 109.239 53.0881C109.481 56.9145 107.352 59.8905 103.721 61.9212C98.7303 64.7159 90.7863 65.6963 83.0044 64.7491C76.5253 63.9617 70.17 61.8468 65.7252 58.4335C64.7499 57.6813 63.8617 56.8708 63.0826 55.9972C40.3809 71.21 20.2403 97.4813 13.0712 123.24C12.9057 123.826 12.2984 124.172 11.7093 124.007C11.1205 123.844 10.7769 123.234 10.9396 122.648C18.2277 96.4698 38.6571 69.7665 61.7234 54.2492ZM64.9628 54.766C66.5224 53.7682 68.0897 52.8258 69.6623 51.9416C74.0843 49.4559 86.5952 45.2064 96.1062 45.513C101.943 45.7002 106.676 47.5865 107.034 53.2284C107.22 56.1916 105.452 58.418 102.642 59.9936C99.5497 61.7236 95.235 62.6676 90.5609 62.8571C83.4646 63.1448 75.5411 61.684 69.732 58.4218C67.8912 57.3893 66.2661 56.172 64.9628 54.766Z" fill="#1F64FF"/>
<path fill-rule="evenodd" clip-rule="evenodd" d="M47.3309 100.305C34.5851 103.69 21.5641 113.397 12.842 123.379C12.4409 123.838 11.7421 123.884 11.283 123.483C10.8239 123.082 10.7748 122.384 11.1759 121.924C20.1695 111.629 33.6232 101.66 46.7627 98.1685C47.3507 98.0118 47.9566 98.3633 48.1136 98.9541C48.2703 99.5421 47.9189 100.148 47.3309 100.305Z" fill="#1F64FF"/>
<path fill-rule="evenodd" clip-rule="evenodd" d="M10.9313 121.803C15.4969 111.818 14.9321 97.1852 11.2261 86.8154C11.0201 86.2403 11.3185 85.6056 11.8939 85.4024C12.4691 85.1964 13.101 85.495 13.3069 86.0702C17.1892 96.9338 17.7243 112.261 12.9412 122.723C12.6888 123.278 12.0302 123.522 11.4753 123.27C10.9201 123.014 10.6761 122.359 10.9313 121.803Z" fill="#1F64FF"/>
</g>
<defs>
<clipPath id="clip0_203_2950">
<rect width="130" height="130" fill="white" transform="matrix(0.0899077 0.99595 0.99595 -0.0899077 0.927734 12.6152)"/>
</clipPath>
</defs>
</svg>
