<svg width="205" height="32" viewBox="0 0 205 32" fill="none" xmlns="http://www.w3.org/2000/svg">
<g clip-path="url(#clip0_206_4186)">
<path d="M66.0873 7.47473H62.5V25.8078H66.0873V7.47473Z" fill="#2A3362"/>
<path d="M79.9909 19.3062C79.9909 21.8272 78.3421 22.9772 76.1585 22.9772C73.9749 22.9772 72.5043 21.8493 72.5043 19.4388V12.8929H68.917V20.2571C68.917 23.9281 71.2343 26.0733 75.089 26.0733C77.5177 26.0733 78.8546 25.1887 79.7681 24.1935H79.9687L80.2806 25.83H83.5783V12.8929H79.9909V19.3062Z" fill="#2A3362"/>
<path d="M115.196 23.2647C112.567 23.2647 111.096 22.0705 110.851 20.3455H122.237C122.281 19.9917 122.326 19.6157 122.304 19.2619C122.281 14.6178 118.739 12.6496 114.951 12.6496C110.561 12.6496 107.241 15.2591 107.241 19.4609C107.241 23.4637 110.405 26.0732 115.173 26.0732C119.162 26.0732 121.813 24.3262 122.348 21.6282H118.805C118.404 22.6897 117.134 23.2647 115.196 23.2647ZM114.973 15.4582C117.268 15.4582 118.583 16.4754 118.805 17.8908H110.94C111.274 16.5197 112.611 15.4582 114.973 15.4582Z" fill="#2A3362"/>
<path d="M128.431 14.7505H128.208L127.874 12.8929H124.621V25.8079H128.208V20.2571C128.208 17.7581 129.657 16.3649 132.375 16.3649C132.865 16.3649 133.355 16.4091 133.846 16.4976V12.8929H133.355C130.927 12.8929 129.456 13.4015 128.431 14.7505Z" fill="#2A3362"/>
<path d="M151.448 21.783H151.248L148.173 13.7111H144.474L141.466 21.7609H141.221L138.369 12.8929H134.804L139.193 25.8079H143.092L146.212 17.5812H146.435L149.51 25.8079H153.431L157.821 12.8929H154.256L151.448 21.783Z" fill="#2A3362"/>
<path d="M172.103 22.0484V17.736C172.103 14.2197 169.117 12.6496 165.396 12.6496C161.452 12.6496 158.979 14.5072 158.645 17.2937H162.232C162.5 16.0774 163.525 15.4139 165.396 15.4139C167.268 15.4139 168.516 16.1216 168.516 17.537V17.8687L162.656 18.311C159.96 18.51 157.977 19.7042 157.977 22.2474C157.977 24.8569 160.249 26.0953 163.569 26.0953C166.265 26.0953 167.892 25.3434 168.895 24.2377H169.073C169.63 25.4982 170.788 25.8521 172.014 25.8521H173.529V23.2204H173.195C172.46 23.1762 172.103 22.8224 172.103 22.0484ZM168.516 20.6772C168.516 22.7118 166.065 23.3974 163.97 23.3974C162.544 23.3974 161.608 23.0435 161.608 22.0484C161.608 21.1638 162.411 20.7436 163.614 20.633L168.538 20.2792L168.516 20.6772Z" fill="#2A3362"/>
<path d="M185.382 12.8929L181.193 22.2474H180.971L176.715 12.8929H172.838L178.898 25.8079H183.199L189.237 12.8929H185.382Z" fill="#2A3362"/>
<path d="M200.713 21.6282C200.267 22.6897 198.997 23.2647 197.081 23.2647C194.451 23.2647 192.981 22.0705 192.736 20.3455H204.122C204.166 19.9917 204.211 19.6157 204.189 19.2619C204.166 14.6178 200.623 12.6496 196.836 12.6496C192.446 12.6496 189.148 15.2591 189.148 19.4609C189.148 23.4637 192.312 26.0732 197.081 26.0732C201.069 26.0732 203.721 24.3262 204.255 21.6282H200.713ZM196.836 15.4582C199.131 15.4582 200.445 16.4754 200.668 17.8908H192.803C193.137 16.5197 194.451 15.4582 196.836 15.4582Z" fill="#2A3362"/>
<path d="M56.6843 11.9419C56.6843 10.8141 57.4864 10.3275 58.5337 10.3275C59.0239 10.3275 59.4918 10.3939 59.9597 10.5266L60.5613 7.93914C59.6923 7.62954 58.7788 7.47473 57.8652 7.47473C55.2137 7.47473 53.0747 8.86796 53.0747 11.765V12.8928H49.9775V15.7235H53.0747V25.8078H56.6843V15.7235H60.7395V12.8928H56.6843V11.9419Z" fill="#2A3362"/>
<path d="M91.5329 9.26605H88.1906L88.0124 12.915H85.1826V15.7457H87.9455V22.1147C87.9455 24.2819 89.0596 26.0954 92.4019 26.0954C93.2708 26.0954 94.1398 26.0069 94.9865 25.8079V23.0878C94.4963 23.1983 94.0061 23.2647 93.4937 23.2647C91.7111 23.2647 91.5329 22.2474 91.5329 21.4734V15.7236H95.0979V12.8929H91.5329V9.26605Z" fill="#2A3362"/>
<path d="M102.807 9.26605H99.4875L99.3093 12.915H96.4795V15.7457H99.2424V22.1147C99.2424 24.2819 100.356 26.0954 103.699 26.0954C104.568 26.0954 105.414 25.9848 106.261 25.8079V23.0878C105.771 23.1983 105.281 23.2647 104.768 23.2647C102.986 23.2647 102.807 22.2474 102.807 21.4734V15.7236H106.373V12.8929H102.785V9.26605H102.807Z" fill="#2A3362"/>
<path d="M0 6.98826C0 4.90948 0.601603 3.1403 1.89394 1.87976L4.12209 4.09123C1.64884 6.54597 3.81015 14.1755 10.8734 21.1859C17.9367 28.1963 25.6238 30.3414 28.0971 27.8867L30.3252 30.0981C26.1363 34.2557 16.6221 31.2923 8.64526 23.3974C3.11942 17.8908 0 11.6766 0 6.98826Z" fill="#009A46"/>
<path d="M14.0601 32C11.9657 32 10.1831 31.4029 8.91309 30.1202L11.1412 27.9088C13.6145 30.3635 21.3017 28.2184 28.3649 21.208C35.4282 14.1976 37.5895 6.56806 35.1162 4.11333L37.3444 1.90186C41.5333 6.05942 38.5476 15.5024 30.5931 23.4195C25.045 28.9039 18.7615 32 14.0601 32Z" fill="#FF5805"/>
<path d="M31.3059 20.2571C29.9467 16.387 27.1838 12.2515 23.5296 8.62472C15.5528 0.707645 6.03859 -2.23361 1.84965 1.90184C1.55999 2.21145 1.82737 2.94123 2.42897 3.53833C3.03057 4.13543 3.78815 4.4008 4.07781 4.11331C6.55106 1.65858 14.2382 3.80371 21.3015 10.8141C24.6437 14.1313 27.1392 17.8466 28.3425 21.2743C29.3897 24.2819 29.3006 26.7146 28.0751 27.9309C27.7854 28.2184 28.0305 28.9481 28.6544 29.5674C29.2783 30.1866 30.0136 30.4298 30.3032 30.1423C32.4423 27.9972 32.7988 24.481 31.3059 20.2571Z" fill="#F5AFCB"/>
<path d="M37.3213 1.90187C35.1822 -0.221139 31.6395 -0.574974 27.3837 0.884597C23.4844 2.2336 19.3177 4.97582 15.6636 8.60264C7.68675 16.5197 4.7233 25.9627 8.91224 30.1203C9.2019 30.4078 9.95947 30.1645 10.5611 29.5453C11.1627 28.9261 11.4301 28.1963 11.1404 27.9088C8.66714 25.4541 10.8285 17.8245 17.8917 10.8141C21.234 7.4969 24.9773 5.02005 28.4086 3.82586C31.4389 2.78646 33.8899 2.87492 35.1154 4.09123C35.405 4.37872 36.1403 4.13546 36.7642 3.51625C37.3881 2.89704 37.6332 2.21148 37.3213 1.90187Z" fill="#FF9B00"/>
</g>
<defs>
<clipPath id="clip0_206_4186">
<rect width="204.255" height="32" fill="white"/>
</clipPath>
</defs>
</svg>
