<svg width="124" height="33" viewBox="0 0 124 33" fill="none" xmlns="http://www.w3.org/2000/svg">
<path d="M107.371 7.97495L104.745 24.4367C104.735 24.4971 104.739 24.559 104.755 24.6179C104.772 24.6769 104.801 24.7315 104.841 24.7779C104.881 24.8243 104.931 24.8614 104.987 24.8866C105.043 24.9118 105.104 24.9245 105.165 24.9238H108.274C108.383 24.9248 108.49 24.8865 108.573 24.8159C108.657 24.7454 108.713 24.6472 108.731 24.5392L111.357 8.07748C111.367 8.01703 111.363 7.95517 111.347 7.89623C111.33 7.83729 111.301 7.7827 111.261 7.73628C111.221 7.68986 111.171 7.65274 111.115 7.62753C111.059 7.60231 110.998 7.5896 110.937 7.5903H107.828C107.718 7.58813 107.611 7.62596 107.527 7.69675C107.443 7.76753 107.388 7.86642 107.371 7.97495ZM104.052 12.7789H101.103C100.994 12.7778 100.887 12.816 100.803 12.8864C100.72 12.9569 100.664 13.055 100.647 13.1629L100.549 13.7689C100.549 13.7689 98.2585 11.2912 94.2029 12.9656C91.8762 13.9243 90.7593 15.9051 90.2841 17.3562C90.2841 17.3562 88.7757 21.7663 92.1872 24.1937C92.1872 24.1937 95.3505 26.5284 98.9125 24.0501L98.851 24.4367C98.8367 24.5275 98.8527 24.6205 98.8965 24.7014C98.9402 24.7823 99.0093 24.8467 99.0932 24.8847C99.1489 24.9108 99.2098 24.9238 99.2713 24.9238H102.223C102.333 24.926 102.44 24.8882 102.524 24.8174C102.608 24.7466 102.663 24.6477 102.679 24.5392L104.475 13.2661C104.485 13.2057 104.481 13.1438 104.464 13.085C104.447 13.0261 104.418 12.9718 104.377 12.9258C104.337 12.879 104.287 12.8415 104.231 12.816C104.175 12.7905 104.114 12.7782 104.052 12.7789ZM99.7125 19.0091C99.5975 19.7967 99.1983 20.5154 98.5898 21.0303C97.9787 21.5471 97.201 21.8261 96.3999 21.8159C96.0858 21.8196 95.773 21.7742 95.4729 21.6814C94.1996 21.2765 93.4729 20.0657 93.6818 18.7531C93.7978 17.9658 94.1974 17.2477 94.8058 16.7332C95.4164 16.2161 96.1935 15.9362 96.9944 15.9449C97.3086 15.9417 97.6214 15.9875 97.9214 16.0807C99.2026 16.483 99.926 17.6958 99.7158 19.0097H99.7125V19.0091ZM83.9639 19.3206C85.5633 19.3206 87.1103 18.7537 88.3253 17.7232C89.5378 16.6961 90.3407 15.2691 90.5878 13.7016C91.1044 10.4409 88.5322 7.59487 84.8857 7.59487H79.0114C78.9018 7.59382 78.7954 7.63208 78.7116 7.70267C78.6279 7.77327 78.5723 7.87151 78.5551 7.97952L75.9279 24.4412C75.9137 24.5321 75.9296 24.625 75.9734 24.7059C76.0171 24.7868 76.0862 24.8512 76.1701 24.8892C76.2265 24.9154 76.2867 24.9284 76.3482 24.9284H79.4585C79.5682 24.9295 79.6745 24.8912 79.7583 24.8206C79.842 24.75 79.8976 24.6518 79.9148 24.5438L80.686 19.7098C80.7022 19.6012 80.7576 19.5021 80.8417 19.4312C80.9258 19.3603 81.0329 19.3224 81.143 19.3245L83.9639 19.3206ZM86.5656 13.5534C86.3738 14.759 85.4323 15.6465 83.6314 15.6465H81.3289L82.0281 11.2625H84.2893C86.1512 11.2657 86.7574 12.3531 86.5656 13.5567V13.5534Z" fill="#0070E0"/>
<path d="M72.384 13.0583L68.8265 19.0045L67.021 13.1021C66.9927 13.0079 66.9345 12.9254 66.8552 12.8671C66.7758 12.8088 66.6796 12.7778 66.581 12.7788H63.3706C63.2875 12.7777 63.2068 12.8066 63.1434 12.8601C63.08 12.9136 63.0382 12.9882 63.0255 13.0701C63.0177 13.1244 63.0233 13.1798 63.0419 13.2314L66.2773 23.1736L63.3509 27.8587C63.3261 27.8972 63.3094 27.9405 63.3019 27.9857C63.2943 28.0309 63.2962 28.0772 63.3072 28.1217C63.3182 28.1662 63.3382 28.208 63.366 28.2445C63.3938 28.281 63.4288 28.3115 63.4688 28.3341C63.5223 28.3648 63.5831 28.3806 63.6449 28.3798H67.1028C67.2015 28.3802 67.2986 28.3551 67.3847 28.307C67.4708 28.259 67.5431 28.1896 67.5944 28.1055L76.6314 13.3026C76.6642 13.251 76.6822 13.1915 76.6834 13.1305C76.6847 13.0695 76.6692 13.0093 76.6386 12.9565C76.6081 12.9034 76.5639 12.8595 76.5106 12.8293C76.4573 12.7991 76.3968 12.7837 76.3355 12.7847H72.8789C72.7797 12.7838 72.682 12.8085 72.5953 12.8565C72.5086 12.9044 72.4358 12.974 72.384 13.0583ZM61.5506 12.7788H58.5987C58.4889 12.7778 58.3824 12.8161 58.2985 12.8868C58.2146 12.9575 58.159 13.0559 58.1417 13.1641L58.0462 13.7695C58.0462 13.7695 55.7535 11.2918 51.6979 12.9663C49.3719 13.925 48.2543 15.9057 47.781 17.3568C47.781 17.3568 46.2714 21.7669 49.6822 24.1943C49.6822 24.1943 52.8462 26.529 56.4082 24.0507L56.3467 24.4373C56.3322 24.5281 56.348 24.6212 56.3918 24.7021C56.4356 24.7831 56.5048 24.8475 56.5889 24.8853C56.6445 24.9114 56.7054 24.9245 56.767 24.9245H59.7182C59.8277 24.9252 59.934 24.8869 60.0177 24.8163C60.1014 24.7458 60.157 24.6477 60.1745 24.5398L61.9702 13.2667C61.9849 13.1757 61.9691 13.0825 61.9253 13.0014C61.8815 12.9203 61.8122 12.8559 61.728 12.818C61.6721 12.7924 61.6121 12.779 61.5506 12.7788ZM57.2102 19.0103C57.094 19.797 56.6946 20.5146 56.0868 21.029C55.476 21.5457 54.699 21.8253 53.8982 21.8165C53.5845 21.82 53.2722 21.7746 52.9725 21.682C51.6998 21.2771 50.9738 20.0663 51.1827 18.753C51.299 17.9641 51.7001 17.2446 52.3106 16.7298C52.9235 16.2128 53.7032 15.9343 54.5057 15.9455C54.82 15.9423 55.1336 15.988 55.4334 16.0814C56.7015 16.4836 57.4236 17.6957 57.2141 19.0103H57.2102ZM41.4622 19.3212C43.0588 19.3204 44.6032 18.7535 45.8197 17.7219C47.0311 16.6948 47.8329 15.2683 48.0796 13.7016C48.5967 10.4415 46.0239 7.59548 42.3787 7.59548H36.5038C36.3942 7.59439 36.2878 7.63253 36.2039 7.70298C36.1201 7.77343 36.0644 7.87154 36.0468 7.97948L33.4282 24.4366C33.4135 24.5276 33.4293 24.6208 33.4731 24.7019C33.5169 24.783 33.5862 24.8474 33.6704 24.8853C33.726 24.9107 33.7869 24.9245 33.8485 24.9245H36.9568C37.0666 24.9255 37.1732 24.8872 37.257 24.8165C37.3409 24.7458 37.3965 24.6473 37.4138 24.5392L38.1836 19.7052C38.2 19.5967 38.2554 19.4978 38.3395 19.427C38.4236 19.3562 38.5306 19.3184 38.6406 19.3205L41.4622 19.3212ZM44.0638 13.5534C43.872 14.7589 42.9313 15.6464 41.1303 15.6464H38.8278L39.5257 11.2624H41.7869C43.6494 11.2657 44.255 12.3537 44.0638 13.5566V13.5534Z" fill="#003087"/>
<path d="M21.368 8.44121C21.438 4.80627 18.4324 2.0177 14.2995 2.0177H5.75093C5.55172 2.01761 5.35902 2.08848 5.20755 2.21755C5.05608 2.34662 4.95579 2.52541 4.92474 2.7217L1.49954 24.0722C1.48421 24.169 1.49009 24.2679 1.51676 24.3622C1.54344 24.4564 1.59027 24.5438 1.65405 24.6183C1.71782 24.6928 1.79702 24.7526 1.88619 24.7936C1.97536 24.8346 2.07238 24.8559 2.17057 24.8559H7.23505L6.44356 29.7996C6.42824 29.8963 6.43412 29.9952 6.46079 30.0895C6.48746 30.1838 6.5343 30.2712 6.59807 30.3456C6.66185 30.4201 6.74105 30.4799 6.83021 30.521C6.91938 30.562 7.0164 30.5832 7.11459 30.5832H11.2403C11.4393 30.5832 11.6167 30.5121 11.7686 30.3834C11.9192 30.2541 11.9441 30.0758 11.9755 29.8792L13.1866 22.7713C13.2174 22.5754 13.3175 22.3207 13.4688 22.1914C13.62 22.0621 13.7522 21.9916 13.9519 21.9916H16.4763C20.5241 21.9916 23.9578 19.1214 24.5856 15.1299C25.0301 12.2969 23.8125 9.71925 21.368 8.44121Z" fill="#001C64"/>
<path d="M8.33046 16.9819L7.06892 24.961L6.27678 29.9661C6.26155 30.0629 6.26752 30.1618 6.29428 30.256C6.32104 30.3502 6.36795 30.4376 6.43179 30.512C6.49562 30.5864 6.57486 30.6461 6.66406 30.6871C6.75325 30.728 6.85028 30.7492 6.94846 30.7491H11.3151C11.5141 30.749 11.7066 30.6781 11.8578 30.549C12.009 30.4199 12.1091 30.2413 12.14 30.0451L13.2909 22.7707C13.3219 22.5745 13.4221 22.3958 13.5734 22.2667C13.7247 22.1377 13.9173 22.0667 14.1164 22.0667H16.6866C20.7344 22.0667 24.1681 19.1214 24.7966 15.1299C25.2418 12.2969 23.812 9.71859 21.3674 8.44055C21.3609 8.74227 21.3347 9.04333 21.2882 9.34178C20.6604 13.332 17.2254 16.2779 13.1789 16.2779H9.15599C8.95684 16.2782 8.76429 16.3492 8.61296 16.4784C8.46164 16.6076 8.36147 16.7857 8.33046 16.9819Z" fill="#0070E0"/>
<path d="M7.06858 24.9611H1.98839C1.89021 24.9611 1.79321 24.9398 1.70407 24.8988C1.61493 24.8578 1.53576 24.798 1.47204 24.7235C1.40831 24.649 1.36154 24.5616 1.33495 24.4673C1.30836 24.373 1.30258 24.2741 1.31801 24.1774L4.74321 2.51015C4.77424 2.31397 4.87444 2.13527 5.02577 2.00621C5.17711 1.87716 5.36965 1.80621 5.56875 1.80615H14.2994C18.4322 1.80615 21.4378 4.80632 21.3678 8.4406C20.3393 7.90248 19.1308 7.59489 17.807 7.59489H10.5285C10.3293 7.59479 10.1366 7.66566 9.9851 7.79474C9.83363 7.92381 9.73334 8.10259 9.7023 8.29889L8.33143 16.982L7.06793 24.9611H7.06858Z" fill="#003087"/>
</svg>
