<svg width="60" height="60" viewBox="0 0 60 60" fill="none" xmlns="http://www.w3.org/2000/svg">
<g opacity="0.1" clip-path="url(#clip0_290_4474)">
<path d="M19.5384 15.4275C19.5384 13.3164 20.3771 11.2917 21.8699 9.79896C23.3627 8.30617 25.3873 7.46753 27.4984 7.46753C29.6096 7.46753 31.6342 8.30617 33.127 9.79896C34.6198 11.2917 35.4584 13.3164 35.4584 15.4275V35.44H36.2547C36.7027 35.4402 37.1463 35.3521 37.5602 35.1808C37.9741 35.0096 38.3503 34.7584 38.6672 34.4418C38.9841 34.1251 39.2355 33.7492 39.407 33.3354C39.5786 32.9216 39.667 32.478 39.6672 32.03V29.0738C39.6672 27.566 40.2661 26.12 41.3323 25.0539C42.3984 23.9877 43.8444 23.3888 45.3522 23.3888C46.8599 23.3888 48.3059 23.9877 49.3721 25.0539C50.4382 26.12 51.0372 27.566 51.0372 29.0738V32.03C51.0372 40.1938 44.4184 46.8125 36.2547 46.8125H35.4584V57.5H19.5397V37.035H18.7434C10.5797 37.035 3.96094 30.4163 3.96094 22.2525V19.295C3.96094 17.7871 4.55996 16.3409 5.62622 15.2747C6.69248 14.2084 8.13864 13.6094 9.64656 13.6094C11.1545 13.6094 12.6006 14.2084 13.6669 15.2747C14.7332 16.3409 15.3322 17.7871 15.3322 19.295V22.2525C15.3322 23.1573 15.6916 24.0249 16.3313 24.6646C16.9711 25.3044 17.8387 25.6638 18.7434 25.6638H19.5397V15.4288L19.5384 15.4275Z" stroke="white" stroke-width="5.37607" stroke-linecap="round" stroke-linejoin="round"/>
<path d="M32.4814 2.50001C36.8814 2.50001 40.4477 6.05876 40.4477 10.45V26.1938C39.9345 27.0662 39.6647 28.0603 39.6664 29.0725V32.03C39.6661 32.9348 39.3064 33.8025 38.6665 34.4422C38.0265 35.0819 37.1587 35.4413 36.2539 35.4413H35.4589V15.4263C35.4588 13.8678 35.0013 12.3437 34.1431 11.0429C33.2849 9.74211 32.0637 8.72185 30.631 8.10865C29.1983 7.49545 27.6171 7.3163 26.0835 7.5934C24.5499 7.87051 23.1314 8.5917 22.0039 9.66751L27.0127 4.66751C28.4914 3.27234 30.4484 2.49669 32.4814 2.50001Z" stroke="white" stroke-width="5.37607" stroke-linecap="round" stroke-linejoin="round"/>
<path d="M42.3496 24.2438L46.6059 19.8013C47.6427 18.8949 48.9737 18.3964 50.3509 18.3988C51.8582 18.3975 53.3043 18.9948 54.3713 20.0595C55.4384 21.1242 56.0389 22.569 56.0409 24.0763V27.0301C56.043 28.972 55.6603 30.8951 54.915 32.6883C54.1696 34.4815 53.0764 36.1093 51.6984 37.4776L47.2409 41.9201C49.6899 39.2082 51.0434 35.6828 51.0384 32.0288V29.0726C51.0388 28.0592 50.7684 27.0642 50.2551 26.1905C49.7418 25.3168 49.0043 24.5961 48.119 24.1032C47.2336 23.6102 46.2326 23.3629 45.2196 23.3867C44.2065 23.4106 43.2183 23.7047 42.3571 24.2388L42.3496 24.2438Z" stroke="white" stroke-width="5.37607" stroke-linecap="round" stroke-linejoin="round"/>
<path d="M35.459 57.4462L40.449 52.4675V46.2087C39.0872 46.6098 37.6748 46.8128 36.2552 46.8112H35.459V57.4462Z" stroke="white" stroke-width="5.37607" stroke-linecap="round" stroke-linejoin="round"/>
<path d="M19.5355 15.4275V25.6612H18.7392C17.8346 25.6609 16.9671 25.3014 16.3275 24.6617C15.6878 24.022 15.3283 23.1546 15.328 22.25V19.2937C15.328 18.1709 14.9956 17.0733 14.3726 16.1392C13.7497 15.2051 12.8641 14.4764 11.8275 14.045C10.791 13.6135 9.64987 13.4987 8.54812 13.7149C7.44637 13.9311 6.43332 14.4687 5.63672 15.26L10.9105 9.99495C11.941 9.11345 13.2531 8.6301 14.6092 8.63245C17.1492 8.63245 19.3092 10.3287 20.0392 12.6237C19.7067 13.5211 19.5361 14.4704 19.5355 15.4275Z" stroke="white" stroke-width="5.37607" stroke-linecap="round" stroke-linejoin="round"/>
</g>
<defs>
<clipPath id="clip0_290_4474">
<rect width="60" height="60" fill="white"/>
</clipPath>
</defs>
</svg>
