<svg width="60" height="60" viewBox="0 0 60 60" fill="none" xmlns="http://www.w3.org/2000/svg">
<g opacity="0.1">
<path d="M9.04485 17.9087C3.7736 27.04 6.90235 38.7162 16.0323 43.9887L24.8511 49.08C33.9836 54.3512 45.6599 51.2237 50.9311 42.0925C56.2036 32.96 53.0749 21.2837 43.9436 16.0112L35.1249 10.92C25.9936 5.64872 14.3174 8.77747 9.04485 17.9075V17.9087Z" stroke="white" stroke-width="5.37607" stroke-linecap="round" stroke-linejoin="round"/>
<path d="M18.8516 27.455C18.8516 28.3385 19.0256 29.2133 19.3637 30.0295C19.7018 30.8458 20.1973 31.5874 20.822 32.2121C21.4467 32.8368 22.1883 33.3324 23.0046 33.6704C23.8208 34.0085 24.6956 34.1825 25.5791 34.1825C26.4625 34.1825 27.3373 34.0085 28.1536 33.6704C28.9698 33.3324 29.7114 32.8368 30.3361 32.2121C30.9608 31.5874 31.4564 30.8458 31.7945 30.0295C32.1326 29.2133 32.3066 28.3385 32.3066 27.455C32.3066 26.5716 32.1326 25.6968 31.7945 24.8805C31.4564 24.0643 30.9608 23.3227 30.3361 22.698C29.7114 22.0733 28.9698 21.5777 28.1536 21.2396C27.3373 20.9016 26.4625 20.7275 25.5791 20.7275C24.6956 20.7275 23.8208 20.9016 23.0046 21.2396C22.1883 21.5777 21.4467 22.0733 20.822 22.698C20.1973 23.3227 19.7018 24.0643 19.3637 24.8805C19.0256 25.6968 18.8516 26.5716 18.8516 27.455Z" stroke="white" stroke-width="5.37607" stroke-linecap="round" stroke-linejoin="round"/>
<path d="M16.0336 43.9875C25.1649 49.2612 36.8411 46.1325 42.1136 37C47.3861 27.8687 44.2574 16.1925 35.1261 10.92C25.9936 5.64872 14.3174 8.77747 9.04485 17.9075C3.7736 27.04 6.90235 38.7162 16.0323 43.9887L16.0336 43.9875ZM22.2161 33.2812C22.9812 33.723 23.8258 34.0097 24.7018 34.125C25.5777 34.2403 26.4677 34.1819 27.3211 33.9533C28.1745 33.7246 28.9744 33.3301 29.6754 32.7923C30.3763 32.2545 30.9644 31.5838 31.4061 30.8187C31.8478 30.0536 32.1345 29.209 32.2499 28.3331C32.3652 27.4571 32.3068 26.5671 32.0782 25.7137C31.8495 24.8604 31.455 24.0604 30.9172 23.3595C30.3793 22.6586 29.7087 22.0705 28.9436 21.6287C27.3984 20.7364 25.562 20.4945 23.8384 20.9562C22.1148 21.4179 20.6453 22.5454 19.753 24.0906C18.8607 25.6358 18.6188 27.4722 19.0805 29.1958C19.5422 30.9194 20.6696 32.3889 22.2149 33.2812H22.2161Z" stroke="white" stroke-width="5.37607" stroke-linecap="round" stroke-linejoin="round"/>
</g>
</svg>
