<svg width="64" height="64" viewBox="0 0 64 64" fill="none" xmlns="http://www.w3.org/2000/svg">
<rect width="64" height="64" fill="#292929"/>
<circle cx="32" cy="32" r="20" fill="#CC0000"/>
<circle cx="32" cy="32" r="20" fill="#CC0000"/>
<rect x="12" y="12" width="40" height="40" rx="20" fill="#F50000"/>
<path d="M35.2485 32L41.5367 25.7118C42.4337 24.8148 42.4337 23.3605 41.5367 22.4635C40.6397 21.5665 39.1855 21.5665 38.2884 22.4635L32.0002 28.7517L25.7121 22.4635C24.8151 21.5665 23.3608 21.5665 22.4638 22.4635C21.5668 23.3605 21.5668 24.8148 22.4638 25.7118L28.752 32L22.4638 38.2882C21.5668 39.1852 21.5668 40.6395 22.4638 41.5365C22.9123 41.9849 23.5001 42.2092 24.0879 42.2092C24.6757 42.2092 25.2636 41.985 25.712 41.5365L32.0002 35.2483L38.2884 41.5365C38.7369 41.9849 39.3247 42.2092 39.9126 42.2092C40.5004 42.2092 41.0882 41.985 41.5367 41.5365C42.4337 40.6395 42.4337 39.1852 41.5367 38.2882L35.2485 32Z" fill="white"/>
</svg>
