<svg width="60" height="60" viewBox="0 0 60 60" fill="none" xmlns="http://www.w3.org/2000/svg">
<g opacity="0.1" clip-path="url(#clip0_290_4484)">
<path d="M17.5307 8.89624C16.2382 16.4662 18.8682 24.5025 25.1545 29.8225C31.4407 35.1425 39.802 36.405 47.0532 33.8775C46.3793 37.8253 44.6563 41.5193 42.0645 44.5725C34.0595 54.0312 19.902 55.2112 10.4432 47.2075C0.98445 39.2025 -0.1943 25.045 7.80945 15.5862C10.3914 12.525 13.7491 10.2143 17.5307 8.89624Z" stroke="white" stroke-width="5.37607" stroke-linejoin="round"/>
<path d="M25.7122 7.48254C24.3497 15.04 26.9034 23.1013 33.1409 28.48C36.9932 31.8121 41.8683 33.7279 46.9584 33.91C39.7284 36.3938 31.4122 35.1188 25.1534 29.8225C18.8659 24.5025 16.2372 16.4663 17.5297 8.89629L25.7134 7.48379L25.7122 7.48254Z" stroke="white" stroke-width="5.37607" stroke-linejoin="round"/>
<path d="M29.8184 51.9788L37.2609 50.7475C42.1856 49.784 46.6424 47.1906 49.9134 43.385C52.5335 40.3567 54.2911 36.6796 55.0021 32.7388C52.4659 33.5963 49.7121 33.9888 47.0484 33.9113C46.3703 37.8461 44.6498 41.5272 42.0659 44.5713C38.9063 48.3169 34.6028 50.9197 29.8184 51.9788Z" stroke="white" stroke-width="5.37607" stroke-linejoin="round"/>
</g>
<defs>
<clipPath id="clip0_290_4484">
<rect width="60" height="60" fill="white"/>
</clipPath>
</defs>
</svg>
