<svg width="60" height="60" viewBox="0 0 60 60" fill="none" xmlns="http://www.w3.org/2000/svg">
<g opacity="0.1" clip-path="url(#clip0_290_4470)">
<path d="M27.3659 8.86372C27.9021 6.26872 30.3496 5.14372 31.5071 4.90497C34.1246 4.58247 36.2071 5.64372 36.9196 6.21622C37.7446 7.04747 40.0246 7.89747 42.5496 4.64997C45.0746 1.39997 49.0309 2.59247 50.6934 3.59372C56.3421 7.89372 57.5809 13.81 57.4934 16.2312C57.4559 22.135 55.9346 35.3012 50.1334 40.7262L44.3959 46.7987C49.3759 40.8775 50.7234 28.9112 50.7571 23.3612C50.8446 20.94 49.6059 15.0237 43.9571 10.7237C42.2946 9.72372 38.3384 8.53122 35.8134 11.78C33.2884 15.0287 31.0071 14.1775 30.1834 13.3462C29.4709 12.775 27.3884 11.7125 24.7709 12.0362C23.6134 12.2737 21.1659 13.3987 20.6296 15.9937C19.9609 19.2375 17.5421 19.3987 16.2346 18.435L16.1221 18.3512C14.9434 17.4762 11.9484 15.2537 9.22461 17.5037L15.3921 10.9137C18.2559 7.80497 21.5971 10.285 22.8584 11.2212L22.9709 11.3037C24.2784 12.2687 26.6959 12.1075 27.3659 8.86372Z" stroke="white" stroke-width="5.37607" stroke-linecap="round" stroke-linejoin="round"/>
<path d="M36.9824 10.6525L42.0074 5.28503" stroke="white" stroke-width="5.37607" stroke-linecap="round" stroke-linejoin="round"/>
<path d="M20.6279 15.9937C21.1629 13.4 23.6104 12.2737 24.7679 12.0362C27.3854 11.7125 29.4679 12.7737 30.1804 13.3462C31.0054 14.1775 33.2854 15.0287 35.8104 11.78C38.3354 8.53124 42.2929 9.72249 43.9554 10.7237C49.6029 15.0237 50.8404 20.94 50.7542 23.3612C50.7179 29.2662 49.1954 42.4312 43.3954 47.8562C36.1441 54.6375 28.5254 55.4162 24.8291 55.1137C21.1341 54.8112 11.6166 50.7537 7.6429 42.8012C3.6679 34.85 4.45665 24.9087 7.58665 19.5212C10.7166 14.1325 14.9241 17.47 16.2316 18.4337C17.5391 19.3987 19.9579 19.2375 20.6279 15.9937Z" stroke="white" stroke-width="5.37607" stroke-linecap="round" stroke-linejoin="round"/>
</g>
<defs>
<clipPath id="clip0_290_4470">
<rect width="60" height="60" fill="white"/>
</clipPath>
</defs>
</svg>
