<svg width="60" height="60" viewBox="0 0 60 60" fill="none" xmlns="http://www.w3.org/2000/svg">
<g opacity="0.1" clip-path="url(#clip0_290_4461)">
<path d="M4.97795 17.7875C6.24045 6.18752 18.323 6.44002 24.2067 8.01627C34.293 0.136269 41.5442 1.71252 44.3805 6.44127C46.6492 10.2225 45.3255 15.5813 44.3805 17.7875C56.043 22.8313 56.358 25.9838 55.413 31.9725C54.6567 36.7638 47.743 39.0125 44.3805 39.5375C39.968 48.3625 39.0217 48.0475 27.6742 48.6788C18.5955 49.1825 18.428 39.6413 19.478 34.8088C14.1192 33.9688 3.71795 29.3875 4.97795 17.7875Z" stroke="white" stroke-width="5.37607" stroke-linejoin="round"/>
<path d="M4.35686 26.59L4.87936 19.17C4.55436 29.755 14.3356 34.0038 19.4756 34.81C19.2001 36.104 19.0535 37.4221 19.0381 38.745L18.8569 43.6125C13.4981 42.7713 3.09686 38.19 4.35686 26.59Z" stroke="white" stroke-width="5.37607" stroke-linejoin="round"/>
<path d="M44.3785 39.5374C47.741 39.0112 54.6535 36.7624 55.411 31.9712L55.0598 38.7424C54.9921 39.4222 54.9028 40.0996 54.7923 40.7737C54.0348 45.5649 47.1223 47.8137 43.7598 48.3387L44.3785 39.5362V39.5374Z" stroke="white" stroke-width="5.37607" stroke-linejoin="round"/>
<path d="M27.6723 48.6788L29.0136 48.605C39.1023 48.0588 40.1461 48.0025 44.3786 39.5375L43.7598 48.34C39.5273 56.8038 38.4848 56.8613 28.3948 57.4075L27.0536 57.48C17.9748 57.985 17.8073 48.4438 18.8573 43.6113L19.0373 38.7438C18.9823 43.525 20.6973 49.0663 27.6723 48.6788Z" stroke="white" stroke-width="5.37607" stroke-linejoin="round"/>
</g>
<defs>
<clipPath id="clip0_290_4461">
<rect width="60" height="60" fill="white"/>
</clipPath>
</defs>
</svg>
